<?xml version="1.0" encoding="UTF-8"?>
<svg xmlns="http://www.w3.org/2000/svg" xmlns:xlink="http://www.w3.org/1999/xlink" width="32px" height="32px" viewBox="0 0 32 32" version="1.1">
<defs>
<radialGradient id="radial0" gradientUnits="userSpaceOnUse" cx="67.9273" cy="91.6563" fx="67.9273" fy="91.6563" r="45.2689" gradientTransform="matrix(0.25,0,0,0.146925,0,9.44725)">
<stop offset="0.0387" style="stop-color:rgb(7.45098%,40%,0%);stop-opacity:1;"/>
<stop offset="0.2939" style="stop-color:rgb(6.666667%,42.745098%,0%);stop-opacity:1;"/>
<stop offset="0.6282" style="stop-color:rgb(4.313725%,49.803922%,0%);stop-opacity:1;"/>
<stop offset="0.7241" style="stop-color:rgb(5.490196%,51.372549%,1.176471%);stop-opacity:1;"/>
<stop offset="0.8096" style="stop-color:rgb(9.803922%,55.294118%,5.098039%);stop-opacity:1;"/>
<stop offset="0.8911" style="stop-color:rgb(16.470588%,62.745098%,10.980392%);stop-opacity:1;"/>
<stop offset="0.9697" style="stop-color:rgb(25.882353%,72.54902%,20%);stop-opacity:1;"/>
<stop offset="1" style="stop-color:rgb(30.196078%,77.254902%,23.921569%);stop-opacity:1;"/>
</radialGradient>
<linearGradient id="linear0" gradientUnits="userSpaceOnUse" x1="70.5293" y1="7.3334" x2="70.5293" y2="105.3313" gradientTransform="matrix(0.25,0,0,0.25,0,0)">
<stop offset="0" style="stop-color:rgb(30.196078%,77.254902%,23.921569%);stop-opacity:1;"/>
<stop offset="0.3861" style="stop-color:rgb(29.803922%,76.470588%,23.529412%);stop-opacity:1;"/>
<stop offset="0.5691" style="stop-color:rgb(27.843137%,73.333333%,21.568627%);stop-opacity:1;"/>
<stop offset="0.7092" style="stop-color:rgb(24.705882%,68.235294%,18.823529%);stop-opacity:1;"/>
<stop offset="0.8276" style="stop-color:rgb(20%,61.176471%,14.509804%);stop-opacity:1;"/>
<stop offset="0.9311" style="stop-color:rgb(14.117647%,51.764706%,9.019608%);stop-opacity:1;"/>
<stop offset="1" style="stop-color:rgb(9.019608%,43.921569%,4.313725%);stop-opacity:1;"/>
</linearGradient>
<linearGradient id="linear1" gradientUnits="userSpaceOnUse" x1="8.7641" y1="85.2803" x2="60.8939" y2="123.4424" gradientTransform="matrix(0.25,0,0,0.25,0,0)">
<stop offset="0" style="stop-color:rgb(30.196078%,77.254902%,23.921569%);stop-opacity:1;"/>
<stop offset="0.2512" style="stop-color:rgb(29.411765%,76.078431%,23.137255%);stop-opacity:1;"/>
<stop offset="0.4579" style="stop-color:rgb(26.666667%,72.156863%,20.784314%);stop-opacity:1;"/>
<stop offset="0.6489" style="stop-color:rgb(22.745098%,65.098039%,16.862745%);stop-opacity:1;"/>
<stop offset="0.8293" style="stop-color:rgb(16.470588%,55.686275%,11.372549%);stop-opacity:1;"/>
<stop offset="1" style="stop-color:rgb(9.019608%,43.921569%,4.313725%);stop-opacity:1;"/>
</linearGradient>
<linearGradient id="linear2" gradientUnits="userSpaceOnUse" x1="50.8744" y1="23.6321" x2="50.8744" y2="101.8928" gradientTransform="matrix(0.25,0,0,0.25,0,0)">
<stop offset="0" style="stop-color:rgb(21.176471%,46.27451%,17.254902%);stop-opacity:1;"/>
<stop offset="0.063" style="stop-color:rgb(33.333333%,58.039216%,29.019608%);stop-opacity:1;"/>
<stop offset="0.1338" style="stop-color:rgb(43.921569%,68.235294%,38.823529%);stop-opacity:1;"/>
<stop offset="0.2148" style="stop-color:rgb(52.941176%,76.470588%,47.45098%);stop-opacity:1;"/>
<stop offset="0.3086" style="stop-color:rgb(59.607843%,83.137255%,53.72549%);stop-opacity:1;"/>
<stop offset="0.4235" style="stop-color:rgb(64.313725%,87.45098%,58.431373%);stop-opacity:1;"/>
<stop offset="0.5819" style="stop-color:rgb(67.058824%,90.196078%,60.784314%);stop-opacity:1;"/>
<stop offset="0.9918" style="stop-color:rgb(67.843137%,90.980392%,61.568627%);stop-opacity:1;"/>
</linearGradient>
<linearGradient id="linear3" gradientUnits="userSpaceOnUse" x1="25.8012" y1="85.9202" x2="46.3297" y2="124.0635" gradientTransform="matrix(0.25,0,0,0.25,0,0)">
<stop offset="0" style="stop-color:rgb(21.176471%,46.27451%,17.254902%);stop-opacity:1;"/>
<stop offset="0.063" style="stop-color:rgb(33.333333%,58.039216%,29.019608%);stop-opacity:1;"/>
<stop offset="0.1338" style="stop-color:rgb(43.921569%,68.235294%,38.823529%);stop-opacity:1;"/>
<stop offset="0.2148" style="stop-color:rgb(52.941176%,76.470588%,47.45098%);stop-opacity:1;"/>
<stop offset="0.3086" style="stop-color:rgb(59.607843%,83.137255%,53.72549%);stop-opacity:1;"/>
<stop offset="0.4235" style="stop-color:rgb(64.313725%,87.45098%,58.431373%);stop-opacity:1;"/>
<stop offset="0.5819" style="stop-color:rgb(67.058824%,90.196078%,60.784314%);stop-opacity:1;"/>
<stop offset="0.9918" style="stop-color:rgb(67.843137%,90.980392%,61.568627%);stop-opacity:1;"/>
</linearGradient>
<linearGradient id="linear4" gradientUnits="userSpaceOnUse" x1="47.0315" y1="78.2618" x2="113.4425" y2="82.4868" gradientTransform="matrix(0.25,0,0,0.25,0,0)">
<stop offset="0" style="stop-color:rgb(21.176471%,46.27451%,17.254902%);stop-opacity:1;"/>
<stop offset="0.063" style="stop-color:rgb(33.333333%,58.039216%,29.019608%);stop-opacity:1;"/>
<stop offset="0.1338" style="stop-color:rgb(43.921569%,68.235294%,38.823529%);stop-opacity:1;"/>
<stop offset="0.2148" style="stop-color:rgb(52.941176%,76.470588%,47.45098%);stop-opacity:1;"/>
<stop offset="0.3086" style="stop-color:rgb(59.607843%,83.137255%,53.72549%);stop-opacity:1;"/>
<stop offset="0.4235" style="stop-color:rgb(64.313725%,87.45098%,58.431373%);stop-opacity:1;"/>
<stop offset="0.5819" style="stop-color:rgb(67.058824%,90.196078%,60.784314%);stop-opacity:1;"/>
<stop offset="0.9918" style="stop-color:rgb(67.843137%,90.980392%,61.568627%);stop-opacity:1;"/>
</linearGradient>
</defs>
<g id="surface1">
<path style=" stroke:none;fill-rule:nonzero;fill:rgb(80%,100%,56.470588%);fill-opacity:1;" d="M 9.882812 3.925781 C 9.882812 3.109375 9.109375 2.445312 8.15625 2.445312 C 7.199219 2.445312 6.425781 3.109375 6.425781 3.925781 C 6.425781 4.742188 7.199219 5.40625 8.15625 5.40625 C 9.109375 5.40625 9.882812 4.742188 9.882812 3.925781 Z M 9.882812 3.925781 "/>
<path style=" stroke:none;fill-rule:nonzero;fill:rgb(70.196078%,70.196078%,70.196078%);fill-opacity:1;" d="M 8.15625 2.640625 C 9.003906 2.640625 9.6875 3.214844 9.6875 3.925781 C 9.6875 4.636719 9.003906 5.210938 8.15625 5.210938 C 7.308594 5.210938 6.621094 4.636719 6.621094 3.925781 C 6.621094 3.214844 7.308594 2.640625 8.15625 2.640625 M 8.15625 2.25 C 7.09375 2.25 6.234375 3 6.234375 3.925781 C 6.234375 4.851562 7.09375 5.601562 8.15625 5.601562 C 9.214844 5.601562 10.078125 4.851562 10.078125 3.925781 C 10.078125 3 9.214844 2.25 8.15625 2.25 Z M 8.15625 2.25 "/>
<path style=" stroke:none;fill-rule:nonzero;fill:rgb(0%,0%,0%);fill-opacity:1;" d="M 8.570312 3.914062 C 8.570312 3.246094 8.390625 2.703125 8.171875 2.703125 C 7.949219 2.703125 7.769531 3.246094 7.769531 3.914062 C 7.769531 4.582031 7.949219 5.125 8.171875 5.125 C 8.390625 5.125 8.570312 4.582031 8.570312 3.914062 Z M 8.570312 3.914062 "/>
<path style=" stroke:none;fill-rule:nonzero;fill:rgb(92.941176%,10.980392%,14.117647%);fill-opacity:1;" d="M 9.613281 8.457031 C 9.613281 8.457031 9.589844 8.453125 9.539062 8.453125 C 9.496094 8.453125 9.433594 8.453125 9.351562 8.460938 C 9.191406 8.476562 8.953125 8.535156 8.71875 8.691406 C 8.605469 8.765625 8.488281 8.875 8.398438 9.003906 C 8.308594 9.128906 8.234375 9.289062 8.191406 9.453125 C 8.144531 9.621094 8.132812 9.808594 8.15625 9.984375 C 8.183594 10.171875 8.25 10.363281 8.289062 10.578125 C 8.328125 10.789062 8.335938 11.058594 8.179688 11.273438 C 8.039062 11.480469 7.789062 11.570312 7.585938 11.59375 C 7.375 11.621094 7.175781 11.585938 7.003906 11.550781 C 6.828125 11.515625 6.671875 11.476562 6.523438 11.46875 C 6.230469 11.445312 5.996094 11.550781 5.882812 11.675781 C 5.765625 11.800781 5.761719 11.914062 5.761719 11.910156 C 5.761719 11.921875 5.75 11.925781 5.742188 11.925781 C 5.734375 11.925781 5.726562 11.914062 5.726562 11.90625 C 5.726562 11.90625 5.726562 11.878906 5.738281 11.828125 C 5.746094 11.78125 5.769531 11.703125 5.828125 11.628906 C 5.886719 11.550781 5.976562 11.476562 6.09375 11.414062 C 6.210938 11.351562 6.371094 11.316406 6.53125 11.316406 C 6.855469 11.304688 7.21875 11.421875 7.558594 11.363281 C 7.726562 11.332031 7.886719 11.261719 7.972656 11.121094 C 8.050781 10.996094 8.054688 10.820312 8.015625 10.632812 C 7.984375 10.445312 7.914062 10.246094 7.878906 10.035156 C 7.839844 9.808594 7.855469 9.589844 7.90625 9.382812 C 7.960938 9.175781 8.054688 8.992188 8.171875 8.835938 C 8.292969 8.675781 8.425781 8.558594 8.574219 8.46875 C 8.859375 8.285156 9.144531 8.238281 9.335938 8.226562 C 9.433594 8.222656 9.515625 8.230469 9.566406 8.234375 C 9.613281 8.242188 9.636719 8.246094 9.636719 8.246094 C 9.699219 8.253906 9.738281 8.308594 9.730469 8.371094 C 9.722656 8.421875 9.671875 8.460938 9.613281 8.457031 Z M 9.613281 8.457031 "/>
<path style=" stroke:none;fill-rule:nonzero;fill:rgb(92.941176%,10.980392%,14.117647%);fill-opacity:1;" d="M 7.1875 11.601562 C 7.1875 11.601562 7.164062 11.609375 7.128906 11.621094 C 7.085938 11.636719 7.050781 11.644531 6.996094 11.679688 C 6.886719 11.738281 6.753906 11.859375 6.664062 12.011719 C 6.570312 12.160156 6.515625 12.335938 6.503906 12.476562 C 6.492188 12.613281 6.511719 12.703125 6.511719 12.703125 C 6.511719 12.703125 6.503906 12.683594 6.496094 12.640625 C 6.484375 12.601562 6.472656 12.546875 6.46875 12.476562 C 6.460938 12.332031 6.488281 12.140625 6.566406 11.960938 C 6.640625 11.78125 6.765625 11.621094 6.890625 11.527344 C 6.945312 11.480469 7.015625 11.441406 7.050781 11.425781 C 7.085938 11.40625 7.109375 11.398438 7.109375 11.398438 C 7.164062 11.371094 7.226562 11.394531 7.253906 11.449219 C 7.28125 11.503906 7.257812 11.566406 7.203125 11.59375 C 7.199219 11.597656 7.191406 11.601562 7.1875 11.601562 Z M 7.1875 11.601562 "/>
<path style=" stroke:none;fill-rule:nonzero;fill:rgb(30.588235%,52.941176%,32.941176%);fill-opacity:1;" d="M 14.445312 1.730469 C 16.332031 1.730469 18.417969 2.476562 19.238281 5.394531 C 20.273438 9.085938 16.21875 11.625 13.691406 15.691406 C 13.578125 15.871094 13.476562 16.050781 13.378906 16.226562 C 14.132812 16.113281 15.089844 16.046875 16.148438 16.046875 C 20.371094 16.046875 26.167969 17.097656 26.773438 20.378906 C 27.765625 21.496094 28.339844 22.722656 28.339844 23.882812 C 28.339844 26.839844 24.585938 29.3125 16.9375 29.535156 C 16.789062 29.539062 16.640625 29.542969 16.496094 29.542969 C 14.957031 29.542969 13.582031 29.308594 12.371094 29.015625 C 10.945312 29.636719 9.425781 30.273438 8.046875 30.273438 C 6.820312 30.273438 5.703125 29.769531 4.855469 28.308594 C 2.390625 24.058594 6.066406 20.773438 6.066406 20.773438 C 6.066406 20.773438 6.015625 20.878906 5.960938 21.078125 C 6.410156 20.046875 7.304688 19.113281 8.539062 18.355469 C 9.640625 14.113281 14.691406 9.628906 15.601562 8.515625 C 16.234375 7.738281 16.265625 7.046875 16.164062 6.558594 C 15.546875 7.359375 14.65625 8.101562 13.550781 8.65625 C 12.414062 9.230469 11.246094 9.511719 10.214844 9.511719 C 9.371094 9.511719 8.621094 9.324219 8.054688 8.960938 C 7.699219 8.734375 7.410156 8.4375 7.222656 8.070312 C 6.382812 6.40625 7.859375 3.96875 10.515625 2.632812 C 11.558594 2.109375 12.621094 1.832031 13.585938 1.789062 C 13.859375 1.75 14.148438 1.730469 14.445312 1.730469 M 9.238281 28.789062 C 9.726562 28.789062 10.238281 28.6875 10.769531 28.53125 C 8.566406 27.710938 7.074219 26.46875 6.285156 25.054688 C 6.289062 25.066406 6.292969 25.078125 6.296875 25.085938 C 6.015625 26.136719 6.242188 26.808594 6.914062 27.625 C 7.617188 28.488281 8.398438 28.789062 9.238281 28.789062 M 14.445312 0.980469 C 14.144531 0.980469 13.835938 0.996094 13.519531 1.03125 C 12.414062 1.085938 11.257812 1.402344 10.167969 1.953125 C 8.757812 2.664062 7.601562 3.683594 6.90625 4.828125 C 6.148438 6.085938 6.015625 7.351562 6.546875 8.398438 C 6.785156 8.871094 7.152344 9.273438 7.640625 9.585938 C 8.324219 10.019531 9.210938 10.253906 10.207031 10.253906 C 11.351562 10.253906 12.558594 9.957031 13.71875 9.398438 C 11.828125 11.363281 8.859375 14.597656 7.886719 17.871094 C 6.859375 18.546875 6.066406 19.34375 5.554688 20.207031 C 5.472656 20.28125 4.5 21.183594 3.847656 22.628906 C 3.21875 24.023438 2.769531 26.203125 4.203125 28.675781 C 5.101562 30.226562 6.394531 31.015625 8.042969 31.015625 C 9.535156 31.015625 11.121094 30.363281 12.4375 29.796875 C 13.863281 30.125 15.195312 30.289062 16.496094 30.289062 C 16.648438 30.289062 16.800781 30.285156 16.957031 30.28125 C 20.675781 30.171875 23.757812 29.519531 25.859375 28.390625 C 27.941406 27.277344 29.085938 25.671875 29.085938 23.878906 C 29.085938 22.609375 28.527344 21.28125 27.464844 20.027344 C 26.957031 17.953125 24.800781 16.839844 23.046875 16.265625 C 21.160156 15.648438 18.644531 15.296875 16.144531 15.296875 C 15.691406 15.296875 15.246094 15.308594 14.824219 15.328125 C 15.484375 14.386719 16.210938 13.523438 16.917969 12.683594 C 18.898438 10.324219 20.773438 8.097656 19.960938 5.191406 C 19.199219 2.476562 17.238281 0.984375 14.445312 0.980469 Z M 14.445312 0.980469 "/>
<path style=" stroke:none;fill-rule:nonzero;fill:url(#radial0);" d="M 28.335938 23.878906 C 28.335938 27.375 23.210938 29.574219 16.933594 29.53125 C 9.394531 29.484375 5.628906 26.085938 5.628906 22.589844 C 5.628906 19.09375 10.605469 16.292969 16.882812 16.292969 C 23.160156 16.292969 28.335938 20.386719 28.335938 23.878906 Z M 28.335938 23.878906 "/>
<path style=" stroke:none;fill-rule:nonzero;fill:url(#linear0);" d="M 16.03125 5.914062 C 16.03125 5.914062 16.921875 7.066406 15.59375 8.511719 C 14.320312 9.890625 6.441406 16.785156 8.914062 22.074219 C 11.542969 27.683594 24.070312 28.34375 26.449219 22.640625 C 29.457031 15.433594 13.410156 15.398438 11.824219 16.691406 L 11.824219 20.855469 C 11.824219 20.855469 19.855469 19.816406 21.589844 21.300781 C 21.589844 21.300781 22.484375 22.339844 17.523438 22.191406 C 12.566406 22.046875 11.15625 19.757812 13.6875 15.6875 C 16.21875 11.625 20.273438 9.085938 19.238281 5.394531 C 17.730469 0.0195312 11.925781 2.015625 10.984375 2.460938 C 10.039062 2.910156 16.03125 5.914062 16.03125 5.914062 Z M 16.03125 5.914062 "/>
<path style=" stroke:none;fill-rule:nonzero;fill:rgb(30.196078%,77.254902%,23.921569%);fill-opacity:1;" d="M 16.835938 3.214844 C 15.996094 1.550781 13.164062 1.285156 10.503906 2.625 C 7.851562 3.960938 6.375 6.398438 7.214844 8.0625 C 7.398438 8.429688 7.691406 8.726562 8.046875 8.953125 C 10.574219 8.796875 12.648438 6.75 14.914062 5.84375 C 15.453125 5.574219 16.265625 6.113281 16.265625 6.386719 C 16.265625 6.390625 16.265625 6.394531 16.269531 6.398438 C 17.050781 5.316406 17.304688 4.144531 16.835938 3.214844 Z M 16.835938 3.214844 "/>
<path style=" stroke:none;fill-rule:nonzero;fill:url(#linear1);" d="M 15.90625 27.074219 C 12.421875 27.195312 9.253906 30.484375 6.914062 27.628906 C 6.246094 26.808594 5.949219 26.113281 6.226562 25.058594 C 5.246094 22.324219 6.058594 20.765625 6.058594 20.765625 C 6.058594 20.765625 2.386719 24.054688 4.851562 28.300781 C 7.378906 32.664062 12.285156 28.488281 15.335938 27.933594 C 17.15625 27.601562 18.261719 27.035156 19.742188 29.683594 C 19.742188 29.683594 19.394531 26.953125 15.90625 27.074219 Z M 15.90625 27.074219 "/>
<path style=" stroke:none;fill-rule:nonzero;fill:rgb(80%,100%,56.470588%);fill-opacity:1;" d="M 14.257812 3.925781 C 14.257812 3.109375 13.484375 2.445312 12.53125 2.445312 C 11.574219 2.445312 10.800781 3.109375 10.800781 3.925781 C 10.800781 4.742188 11.574219 5.40625 12.53125 5.40625 C 13.484375 5.40625 14.257812 4.742188 14.257812 3.925781 Z M 14.257812 3.925781 "/>
<path style=" stroke:none;fill-rule:nonzero;fill:rgb(70.196078%,70.196078%,70.196078%);fill-opacity:1;" d="M 12.53125 2.640625 C 13.378906 2.640625 14.0625 3.214844 14.0625 3.925781 C 14.0625 4.636719 13.378906 5.210938 12.53125 5.210938 C 11.683594 5.210938 10.996094 4.636719 10.996094 3.925781 C 10.996094 3.214844 11.683594 2.640625 12.53125 2.640625 M 12.53125 2.25 C 11.46875 2.25 10.609375 3 10.609375 3.925781 C 10.609375 4.851562 11.46875 5.601562 12.53125 5.601562 C 13.589844 5.601562 14.453125 4.851562 14.453125 3.925781 C 14.453125 3 13.589844 2.25 12.53125 2.25 Z M 12.53125 2.25 "/>
<path style=" stroke:none;fill-rule:nonzero;fill:rgb(0%,0%,0%);fill-opacity:1;" d="M 12.941406 3.914062 C 12.941406 3.246094 12.761719 2.703125 12.542969 2.703125 C 12.320312 2.703125 12.140625 3.246094 12.140625 3.914062 C 12.140625 4.582031 12.320312 5.125 12.542969 5.125 C 12.761719 5.125 12.941406 4.582031 12.941406 3.914062 Z M 12.941406 3.914062 "/>
<path style="fill:none;stroke-width:3;stroke-linecap:round;stroke-linejoin:round;stroke:rgb(30.588235%,52.941176%,32.941176%);stroke-opacity:1;stroke-miterlimit:10;" d="M 33.625 72.453125 C 33.625 72.453125 27.6875 104.265625 69.28125 106 C 116.546875 107.96875 107.953125 80.109375 107.953125 80.109375 " transform="matrix(0.25,0,0,0.25,0,0)"/>
<path style="fill:none;stroke-width:3;stroke-linecap:round;stroke-linejoin:round;stroke:rgb(30.588235%,52.941176%,32.941176%);stroke-opacity:1;stroke-miterlimit:10;" d="M 24.3125 81.15625 C 20.921875 87.796875 21.84375 96.90625 25.703125 103.28125 " transform="matrix(0.25,0,0,0.25,0,0)"/>
<path style="fill:none;stroke-width:3;stroke-linecap:round;stroke-linejoin:round;stroke:rgb(30.588235%,52.941176%,32.941176%);stroke-opacity:1;stroke-miterlimit:10;" d="M 55.453125 63.546875 C 52.765625 68.078125 51.5 70.546875 51.09375 74.09375 C 50.6875 77.65625 51.40625 81.484375 53.828125 84.125 C 56.203125 86.6875 59.78125 87.71875 63.21875 88.34375 C 69.546875 89.484375 76.0625 89.59375 82.421875 88.6875 C 83.84375 88.484375 85.796875 88.109375 85.96875 86.6875 C 86.8125 79.65625 61.765625 80.546875 52.765625 82.609375 " transform="matrix(0.25,0,0,0.25,0,0)"/>
<path style=" stroke:none;fill-rule:nonzero;fill:url(#linear2);" d="M 15.988281 5.90625 C 15.988281 5.90625 17.097656 6.199219 16.890625 8.109375 C 16.648438 10.34375 6.503906 16.964844 11.144531 23.558594 C 12.246094 25.121094 13.171875 25.472656 13.171875 25.472656 C 13.171875 25.472656 10.253906 24.648438 9.132812 22.171875 C 8.664062 21.136719 7.601562 18.519531 10.265625 14.492188 C 11.457031 12.6875 14.183594 9.878906 15.351562 8.726562 C 15.996094 8.085938 16.691406 7.21875 15.988281 5.90625 Z M 15.988281 5.90625 "/>
<path style=" stroke:none;fill-rule:nonzero;fill:url(#linear3);" d="M 5.285156 22.949219 C 5.285156 22.949219 5.378906 23.96875 5.699219 24.796875 C 5.976562 25.511719 6.148438 25.671875 6.148438 25.671875 C 6.148438 25.671875 6.476562 27.859375 7.753906 28.378906 C 8.933594 28.855469 9.734375 28.835938 11.488281 28.3125 C 12.210938 28.097656 13.40625 27.652344 13.867188 27.488281 C 13.867188 27.488281 11.488281 29.453125 8.488281 29.105469 C 5.273438 28.734375 4.097656 25.898438 5.285156 22.949219 Z M 5.285156 22.949219 "/>
<path style=" stroke:none;fill-rule:nonzero;fill:rgb(67.843137%,90.980392%,61.568627%);fill-opacity:1;" d="M 14.914062 5.84375 C 12.648438 6.753906 10.574219 8.796875 8.046875 8.953125 C 9.304688 9.761719 11.476562 9.695312 13.546875 8.652344 C 14.71875 8.0625 15.941406 7.183594 16.148438 6.589844 C 16.351562 5.996094 15.824219 5.476562 14.914062 5.84375 Z M 14.914062 5.84375 "/>
<path style=" stroke:none;fill-rule:nonzero;fill:url(#linear4);" d="M 13.109375 18.210938 C 12.746094 19.496094 13.324219 20.355469 13.324219 20.355469 C 13.324219 20.355469 14.25 20.125 17.351562 20.058594 C 20.453125 19.992188 21.445312 20.75 21.710938 21.34375 C 21.976562 21.941406 21.246094 22.300781 21.246094 22.300781 C 22.667969 22.039062 24.253906 21.078125 23.953125 20.289062 C 23.65625 19.496094 22.5625 18.3125 18.90625 17.914062 C 14.675781 17.453125 13.109375 18.210938 13.109375 18.210938 Z M 13.109375 18.210938 "/>
</g>
</svg>
