<?xml version="1.0" encoding="UTF-8"?>
<svg xmlns="http://www.w3.org/2000/svg" xmlns:xlink="http://www.w3.org/1999/xlink" width="99px" height="16px" viewBox="0 0 99 16" version="1.1">
<g id="surface1">
<path style=" stroke:none;fill-rule:nonzero;fill:rgb(0%,0%,0%);fill-opacity:1;" d="M 5.027344 3.449219 C 3.359375 3.921875 2.46875 5.050781 2.640625 6.480469 C 2.789062 7.78125 3.289062 8.269531 5.617188 9.421875 C 6.585938 9.898438 7.46875 10.398438 7.605469 10.558594 C 8.386719 11.410156 8.136719 12.839844 7.128906 13.261719 C 6.675781 13.449219 5.925781 13.429688 5.449219 13.210938 C 4.667969 12.859375 4.296875 12.140625 4.148438 10.71875 C 4.078125 10.121094 4.066406 10.101562 3.796875 10.101562 C 2.757812 10.101562 2.070312 11.058594 2.398438 12.039062 C 2.550781 12.5 3.167969 13.019531 3.828125 13.25 C 4.488281 13.46875 6.359375 13.558594 7.105469 13.410156 C 8.996094 13.019531 10.136719 11.691406 9.957031 10.109375 C 9.796875 8.789062 9.277344 8.269531 7.058594 7.199219 C 4.878906 6.160156 4.5 5.808594 4.5 4.871094 C 4.5 4 5.226562 3.351562 6.128906 3.429688 C 6.96875 3.5 7.445312 4.199219 7.558594 5.519531 L 7.625 6.261719 L 8.226562 6.191406 C 9.167969 6.078125 9.6875 5.550781 9.554688 4.839844 C 9.457031 4.351562 9.085938 3.96875 8.375 3.648438 C 7.828125 3.398438 7.597656 3.359375 6.648438 3.328125 C 5.898438 3.308594 5.378906 3.351562 5.027344 3.449219 Z M 5.027344 3.449219 "/>
<path style=" stroke:none;fill-rule:nonzero;fill:rgb(0%,0%,0%);fill-opacity:1;" d="M 56.175781 3.449219 C 54.976562 3.789062 54.117188 4.53125 53.867188 5.429688 C 53.699219 6.070312 53.808594 7.011719 54.117188 7.539062 C 54.507812 8.199219 54.96875 8.53125 56.675781 9.371094 C 58.9375 10.46875 59.175781 10.691406 59.175781 11.75 C 59.175781 12.398438 58.996094 12.800781 58.585938 13.101562 C 58.246094 13.339844 57.476562 13.460938 56.9375 13.359375 C 56.496094 13.28125 55.9375 12.800781 55.675781 12.308594 C 55.476562 11.910156 55.277344 10.960938 55.277344 10.398438 L 55.277344 10.03125 L 54.789062 10.109375 C 53.910156 10.25 53.476562 10.699219 53.476562 11.5 C 53.476562 12.28125 54.078125 12.96875 54.996094 13.261719 C 55.675781 13.46875 57.457031 13.550781 58.214844 13.410156 C 58.984375 13.269531 59.753906 12.910156 60.253906 12.460938 C 61.40625 11.421875 61.375 9.289062 60.195312 8.289062 C 59.996094 8.121094 59.085938 7.628906 58.1875 7.191406 C 55.917969 6.089844 55.675781 5.871094 55.675781 4.921875 C 55.675781 4.238281 55.878906 3.851562 56.378906 3.601562 C 57.167969 3.199219 58.007812 3.449219 58.394531 4.210938 C 58.496094 4.410156 58.636719 4.949219 58.695312 5.421875 L 58.804688 6.261719 L 59.386719 6.191406 C 60.085938 6.109375 60.515625 5.820312 60.675781 5.339844 C 60.777344 5.039062 60.765625 4.929688 60.554688 4.519531 C 60.355469 4.121094 60.226562 4 59.644531 3.710938 C 59.015625 3.378906 58.894531 3.359375 57.847656 3.328125 C 57.066406 3.308594 56.566406 3.351562 56.175781 3.449219 Z M 56.175781 3.449219 "/>
<path style=" stroke:none;fill-rule:nonzero;fill:rgb(0%,0%,0%);fill-opacity:1;" d="M 11.367188 3.5 C 11.753906 3.53125 12.144531 3.621094 12.234375 3.691406 C 12.375 3.808594 12.394531 4.351562 12.394531 8.398438 C 12.394531 12.449219 12.375 12.988281 12.234375 13.109375 C 12.144531 13.179688 11.753906 13.269531 11.367188 13.300781 C 10.875 13.351562 11.234375 13.371094 12.496094 13.371094 C 13.792969 13.371094 14.113281 13.351562 13.574219 13.300781 C 13.144531 13.269531 12.734375 13.179688 12.675781 13.121094 C 12.574219 13.019531 12.535156 11.949219 12.515625 8.601562 C 12.496094 6.179688 12.523438 4.199219 12.566406 4.199219 C 12.605469 4.199219 14.035156 6.269531 15.734375 8.800781 L 18.824219 13.398438 L 19.890625 13.398438 L 19.890625 8.660156 C 19.890625 4.480469 19.910156 3.898438 20.050781 3.761719 C 20.230469 3.570312 20.460938 3.511719 21.140625 3.46875 C 21.421875 3.449219 20.8125 3.441406 19.792969 3.429688 C 18.683594 3.429688 18.234375 3.460938 18.664062 3.488281 C 19.8125 3.578125 19.742188 3.339844 19.773438 7.210938 C 19.78125 9.03125 19.761719 10.488281 19.722656 10.46875 C 19.683594 10.441406 18.582031 8.839844 17.292969 6.910156 L 14.945312 3.410156 L 12.792969 3.421875 C 11.367188 3.429688 10.886719 3.449219 11.367188 3.5 Z M 11.367188 3.5 "/>
<path style=" stroke:none;fill-rule:nonzero;fill:rgb(0%,0%,0%);fill-opacity:1;" d="M 24.898438 7.921875 C 24.109375 10.410156 23.378906 12.601562 23.269531 12.769531 C 23.082031 13.089844 22.730469 13.25 22.042969 13.328125 C 21.882812 13.351562 22.511719 13.371094 23.441406 13.371094 C 24.5 13.371094 24.878906 13.351562 24.460938 13.308594 C 23.949219 13.261719 23.742188 13.199219 23.628906 13.058594 C 23.46875 12.828125 23.480469 12.78125 24.019531 11.019531 L 24.429688 9.699219 L 26.179688 9.71875 L 27.929688 9.75 L 28.359375 11.101562 C 28.796875 12.511719 28.878906 13.03125 28.667969 13.171875 C 28.597656 13.210938 28.339844 13.269531 28.089844 13.308594 C 27.839844 13.339844 28.789062 13.378906 30.1875 13.378906 C 32.726562 13.398438 32.738281 13.390625 32.335938 13.210938 C 32.117188 13.109375 31.878906 12.949219 31.796875 12.859375 C 31.71875 12.769531 30.925781 10.609375 30.039062 8.070312 L 28.417969 3.449219 L 27.378906 3.421875 L 26.328125 3.390625 Z M 27.417969 8.148438 L 27.867188 9.550781 L 26.21875 9.578125 C 25.308594 9.589844 24.550781 9.589844 24.519531 9.570312 C 24.5 9.539062 25.890625 5.039062 26.148438 4.300781 C 26.179688 4.21875 26.378906 4.730469 26.589844 5.449219 C 26.800781 6.160156 27.179688 7.378906 27.417969 8.148438 Z M 27.417969 8.148438 "/>
<path style=" stroke:none;fill-rule:nonzero;fill:rgb(0%,0%,0%);fill-opacity:1;" d="M 33.445312 3.488281 C 34.347656 3.601562 34.285156 3.230469 34.285156 8.359375 C 34.285156 12.339844 34.265625 12.898438 34.125 13.039062 C 33.964844 13.199219 33.777344 13.269531 33.238281 13.328125 C 33.078125 13.351562 34.105469 13.371094 35.535156 13.371094 C 36.984375 13.378906 37.984375 13.339844 37.804688 13.300781 C 37.625 13.261719 37.386719 13.140625 37.273438 13.039062 C 37.09375 12.878906 37.085938 12.75 37.105469 10.921875 C 37.125 9.570312 37.175781 8.949219 37.246094 8.929688 C 37.316406 8.910156 37.765625 9.621094 38.246094 10.519531 C 39.234375 12.320312 39.785156 13.011719 40.433594 13.199219 C 40.652344 13.261719 41.464844 13.339844 42.234375 13.371094 L 43.632812 13.410156 L 43.3125 13.21875 C 42.933594 12.96875 42.824219 12.800781 40.882812 9.699219 C 40.042969 8.351562 39.292969 7.160156 39.222656 7.039062 C 39.09375 6.851562 39.164062 6.75 40.171875 5.621094 C 41.625 3.988281 41.851562 3.820312 42.882812 3.519531 C 43.140625 3.449219 42.683594 3.421875 41.082031 3.421875 C 39.09375 3.429688 38.984375 3.429688 39.632812 3.539062 C 40.761719 3.738281 41.023438 3.980469 40.753906 4.621094 C 40.671875 4.800781 39.832031 5.828125 38.875 6.898438 L 37.136719 8.839844 L 37.105469 6.351562 C 37.074219 3.578125 37.066406 3.628906 37.753906 3.5 C 37.964844 3.460938 36.964844 3.421875 35.535156 3.429688 C 34.105469 3.429688 33.167969 3.460938 33.445312 3.488281 Z M 33.445312 3.488281 "/>
<path style=" stroke:none;fill-rule:nonzero;fill:rgb(0%,0%,0%);fill-opacity:1;" d="M 44.472656 3.5 C 44.761719 3.550781 45.050781 3.628906 45.121094 3.699219 C 45.203125 3.78125 45.242188 5.089844 45.261719 8.289062 C 45.292969 12.679688 45.28125 12.769531 45.082031 13.03125 C 44.921875 13.230469 44.773438 13.300781 44.402344 13.328125 C 44.140625 13.351562 45.902344 13.371094 48.308594 13.378906 L 52.679688 13.398438 L 52.679688 12.410156 C 52.679688 11.871094 52.707031 11.28125 52.75 11.101562 C 52.789062 10.890625 52.777344 10.789062 52.707031 10.828125 C 52.648438 10.871094 52.578125 11.140625 52.546875 11.449219 C 52.46875 12.199219 52.128906 12.800781 51.628906 13.050781 C 51.289062 13.21875 50.980469 13.25 49.601562 13.28125 L 47.980469 13.320312 L 48 10.789062 L 48.03125 8.25 L 49.679688 8.199219 L 51.328125 8.140625 L 49.660156 8.121094 L 47.980469 8.101562 L 47.980469 3.5 L 49.082031 3.5 C 51.328125 3.5 51.769531 3.789062 52.128906 5.46875 L 52.269531 6.148438 L 52.230469 5.210938 C 52.199219 4.691406 52.179688 4.070312 52.179688 3.828125 L 52.179688 3.398438 L 48.0625 3.410156 C 45.640625 3.421875 44.152344 3.460938 44.472656 3.5 Z M 44.472656 3.5 "/>
<path style=" stroke:none;fill-rule:nonzero;fill:rgb(0%,0%,0%);fill-opacity:1;" d="M 61.863281 3.53125 C 62.125 3.601562 62.375 3.75 62.484375 3.898438 C 62.613281 4.089844 64.375 9.839844 65.292969 13.078125 L 65.382812 13.410156 L 66.253906 13.378906 L 67.113281 13.351562 L 68.011719 9.570312 C 68.511719 7.5 68.941406 5.800781 68.972656 5.800781 C 69.003906 5.800781 69.453125 7.230469 69.972656 8.980469 C 70.492188 10.71875 71 12.429688 71.101562 12.769531 L 71.292969 13.398438 L 72.121094 13.398438 C 72.832031 13.398438 72.960938 13.371094 73.011719 13.21875 C 73.039062 13.128906 73.558594 11.101562 74.171875 8.71875 C 74.78125 6.339844 75.320312 4.300781 75.359375 4.171875 C 75.5 3.808594 75.820312 3.589844 76.339844 3.5 C 76.6875 3.449219 76.390625 3.421875 75.269531 3.421875 C 74.160156 3.421875 73.871094 3.449219 74.25 3.5 C 74.539062 3.539062 74.839844 3.628906 74.917969 3.699219 C 75.257812 3.980469 75.050781 4.988281 73.320312 11.648438 C 73.242188 11.949219 73.242188 11.949219 73.101562 11.449219 C 73.019531 11.171875 72.480469 9.351562 71.902344 7.398438 C 71.332031 5.449219 70.839844 3.769531 70.8125 3.671875 C 70.769531 3.53125 70.640625 3.5 70.070312 3.5 C 69.621094 3.5 69.382812 3.539062 69.351562 3.621094 C 69.320312 3.691406 68.882812 5.519531 68.363281 7.679688 C 67.78125 10.121094 67.394531 11.539062 67.351562 11.429688 C 67.183594 11.011719 65.574219 4.5 65.574219 4.230469 C 65.574219 3.851562 65.832031 3.621094 66.382812 3.511719 C 66.671875 3.449219 65.914062 3.421875 64.125 3.421875 C 61.886719 3.421875 61.496094 3.441406 61.863281 3.53125 Z M 61.863281 3.53125 "/>
<path style=" stroke:none;fill-rule:nonzero;fill:rgb(0%,0%,0%);fill-opacity:1;" d="M 81.335938 3.46875 C 81.308594 3.519531 80.65625 5.539062 79.878906 7.980469 C 79.097656 10.421875 78.398438 12.539062 78.316406 12.699219 C 78.128906 13.070312 77.878906 13.210938 77.230469 13.300781 C 76.890625 13.351562 77.296875 13.371094 78.417969 13.371094 C 79.457031 13.371094 79.867188 13.351562 79.46875 13.308594 C 79.109375 13.28125 78.757812 13.210938 78.699219 13.171875 C 78.476562 13.03125 78.566406 12.390625 79.007812 11.050781 L 79.429688 9.75 L 81.175781 9.71875 L 82.925781 9.699219 L 83.355469 11.121094 C 83.585938 11.910156 83.804688 12.621094 83.824219 12.710938 C 83.90625 12.988281 83.605469 13.238281 83.105469 13.308594 C 82.835938 13.339844 83.765625 13.378906 85.164062 13.378906 L 87.714844 13.390625 L 87.292969 13.199219 C 87.003906 13.070312 86.816406 12.898438 86.683594 12.628906 C 86.585938 12.421875 85.804688 10.261719 84.957031 7.828125 L 83.417969 3.398438 L 82.398438 3.398438 C 81.835938 3.398438 81.355469 3.429688 81.335938 3.46875 Z M 82.207031 7.449219 C 82.507812 8.378906 82.777344 9.25 82.804688 9.371094 L 82.875 9.601562 L 81.167969 9.601562 C 79.789062 9.601562 79.457031 9.570312 79.496094 9.46875 C 79.539062 9.359375 80.71875 5.679688 81.085938 4.5 L 81.195312 4.148438 L 81.4375 4.949219 C 81.566406 5.390625 81.917969 6.511719 82.207031 7.449219 Z M 82.207031 7.449219 "/>
<path style=" stroke:none;fill-rule:nonzero;fill:rgb(0%,0%,0%);fill-opacity:1;" d="M 88.503906 3.488281 C 89.402344 3.621094 89.363281 3.378906 89.363281 8.398438 C 89.363281 13.421875 89.402344 13.179688 88.503906 13.308594 C 88.234375 13.339844 89.292969 13.371094 90.863281 13.371094 C 92.503906 13.371094 93.421875 13.339844 93.03125 13.300781 C 92.664062 13.261719 92.300781 13.179688 92.234375 13.109375 C 92.152344 13.03125 92.101562 12.460938 92.082031 11.300781 L 92.054688 9.601562 L 92.78125 9.601562 C 94.292969 9.589844 95.5 9.160156 96.230469 8.371094 C 97.210938 7.308594 97.199219 5.441406 96.222656 4.449219 C 95.363281 3.589844 94.273438 3.390625 90.582031 3.410156 C 89.175781 3.421875 88.234375 3.460938 88.503906 3.488281 Z M 93.332031 3.761719 C 93.472656 3.839844 93.683594 4.128906 93.792969 4.378906 C 93.992188 4.800781 94.011719 5.019531 94.011719 6.5 C 94.011719 8.070312 94.003906 8.179688 93.761719 8.640625 C 93.472656 9.199219 93.011719 9.5 92.441406 9.5 L 92.0625 9.5 L 92.0625 3.46875 L 92.574219 3.53125 C 92.851562 3.570312 93.203125 3.671875 93.332031 3.761719 Z M 93.332031 3.761719 "/>
</g>
</svg>
